REM MD5 83440eb960a6f1b2bc2246058152e99e
FILE "NFL Blitz 2000 (USA).bin" BINARY
  TRACK 01 MODE2/2352
    INDEX 01 00:00:00
  TRACK 02 AUDIO
    INDEX 00 23:56:51
    INDEX 01 23:58:51
  TRACK 03 AUDIO
    INDEX 00 26:31:31
    INDEX 01 26:33:31
REM LEADOUT 29:33:46
